<?xml version="1.0" standalone="no"?>
<!DOCTYPE svg PUBLIC "-//W3C//DTD SVG 20010904//EN"
 "http://www.w3.org/TR/2001/REC-SVG-20010904/DTD/svg10.dtd">
<svg version="1.0" xmlns="http://www.w3.org/2000/svg"
 width="1563.000000pt" height="1563.000000pt" viewBox="0 0 1563.000000 1563.000000"
 preserveAspectRatio="xMidYMid meet">

<g transform="translate(0.000000,1563.000000) scale(0.100000,-0.100000)"
fill="#000000" stroke="none">
<path d="M7035 15340 c-227 -11 -464 -26 -710 -45 -99 -8 -297 -24 -440 -35
-143 -11 -341 -31 -440 -45 -99 -13 -225 -29 -280 -35 -55 -7 -176 -23 -270
-36 -93 -14 -206 -29 -250 -35 -99 -13 -613 -99 -795 -134 -74 -14 -157 -30
-185 -35 -27 -5 -81 -17 -120 -25 -38 -9 -104 -23 -145 -31 -72 -14 -168 -36
-455 -104 -71 -17 -164 -39 -206 -49 -42 -10 -100 -26 -130 -35 -30 -9 -124
-34 -209 -56 -152 -40 -275 -73 -335 -90 -16 -5 -68 -20 -115 -33 -47 -13
-121 -36 -165 -50 -44 -14 -177 -55 -295 -92 -238 -74 -594 -191 -625 -206
-11 -5 -87 -31 -170 -58 -82 -28 -204 -71 -270 -97 -66 -25 -167 -64 -225 -86
-77 -29 -114 -48 -138 -74 -39 -41 -38 -55 12 -209 19 -55 43 -131 54 -170 11
-38 45 -155 76 -260 30 -104 76 -264 101 -355 25 -91 50 -178 55 -195 6 -16
24 -79 41 -140 66 -238 148 -514 184 -620 8 -22 42 -128 76 -235 64 -203 86
-243 117 -224 9 6 172 233 361 504 l344 492 -10 41 c-6 23 -29 101 -52 172
-23 72 -53 173 -67 225 -14 52 -29 109 -34 125 -4 17 -19 70 -34 119 -14 48
-26 90 -26 93 0 2 30 18 68 34 37 17 76 34 87 39 11 5 49 18 85 28 36 11 130
39 210 62 80 24 163 48 185 55 22 7 74 22 115 34 87 25 281 85 360 111 30 10
96 28 145 40 50 12 126 32 170 46 144 42 682 181 755 194 25 5 81 17 125 28
44 11 108 25 142 31 35 6 91 16 125 22 35 6 77 15 93 20 54 16 169 41 220 49
28 4 113 20 190 34 77 15 174 31 215 36 41 5 102 14 135 19 146 24 184 31 240
41 33 5 110 17 170 26 61 8 142 20 180 25 125 18 228 29 355 39 69 5 166 14
215 20 50 6 133 15 185 19 52 5 138 14 190 20 52 6 289 20 525 31 375 18 529
21 1200 17 758 -3 1122 -16 1410 -48 55 -6 141 -15 190 -20 50 -5 131 -14 180
-19 50 -6 140 -15 200 -20 61 -5 124 -12 140 -15 17 -3 86 -12 155 -20 342
-43 439 -56 480 -64 97 -20 158 -31 223 -40 147 -22 214 -33 257 -41 25 -5 88
-16 140 -25 99 -18 210 -40 270 -55 36 -9 144 -32 235 -50 48 -10 167 -35 375
-81 52 -12 106 -25 120 -29 14 -5 45 -13 70 -19 63 -14 235 -58 295 -75 28 -8
122 -33 210 -55 88 -23 203 -55 255 -71 52 -15 147 -44 210 -63 63 -20 169
-52 235 -72 66 -20 134 -40 150 -45 17 -4 68 -20 115 -34 47 -15 123 -38 170
-52 47 -13 94 -29 105 -34 11 -5 73 -30 139 -54 65 -25 120 -47 123 -49 4 -4
-10 -58 -46 -182 -5 -16 -19 -68 -31 -115 -24 -91 -99 -338 -131 -432 l-20
-57 346 -496 c191 -273 354 -499 362 -502 36 -14 56 35 198 482 37 116 76 239
87 275 11 36 28 90 38 120 29 86 77 248 99 330 31 117 76 275 110 390 73 246
92 312 126 445 21 77 46 170 56 206 10 36 19 87 19 113 0 62 -33 96 -115 121
-83 25 -350 120 -520 185 -55 21 -116 43 -135 48 -19 6 -107 36 -195 67 -88
31 -194 68 -235 82 -162 53 -409 131 -480 152 -41 12 -100 30 -130 41 -220 74
-860 245 -1330 356 -193 45 -234 54 -405 89 -93 19 -192 39 -220 45 -184 38
-598 107 -1010 169 -38 6 -128 19 -200 30 -71 11 -175 25 -230 31 -55 6 -152
18 -215 25 -180 23 -402 45 -555 56 -156 11 -289 22 -445 38 -369 38 -1682 62
-2155 41z"/>
<path d="M1405 11045 l-346 -496 46 -122 c75 -196 217 -549 235 -582 12 -21
24 -30 41 -30 20 0 74 70 351 465 314 446 327 467 323 503 -3 21 -10 46 -15
55 -18 33 -205 551 -232 642 -12 41 -26 60 -44 60 -7 0 -169 -223 -359 -495z"/>
<path d="M13862 11498 c-6 -6 -12 -17 -12 -24 0 -27 -114 -346 -221 -619 -21
-55 -39 -106 -39 -113 0 -22 670 -972 685 -972 21 0 10 -25 170 365 85 207
135 339 141 370 5 23 -673 998 -697 1003 -8 1 -20 -3 -27 -10z"/>
<path d="M5571 10261 c-42 -39 -92 -158 -182 -435 -24 -75 -69 -174 -190 -421
-167 -343 -298 -558 -449 -740 -87 -104 -289 -298 -373 -358 -252 -180 -635
-334 -920 -370 l-98 -13 -47 86 c-26 47 -76 144 -112 215 -50 99 -70 131 -86
133 -18 3 -72 -68 -333 -442 -171 -245 -311 -452 -311 -462 0 -14 76 -165 115
-229 7 -11 27 -46 44 -77 17 -32 45 -84 62 -115 107 -197 122 -224 194 -348
32 -55 74 -127 93 -160 19 -33 44 -76 55 -95 11 -19 37 -64 57 -100 20 -36 63
-108 94 -160 32 -52 77 -126 101 -165 23 -38 77 -126 120 -195 43 -69 118
-190 167 -269 80 -128 377 -576 529 -796 209 -302 293 -421 464 -656 201 -278
455 -614 570 -758 55 -68 114 -142 132 -165 17 -22 50 -63 72 -91 23 -27 68
-85 100 -127 33 -43 80 -101 105 -130 203 -236 426 -497 451 -528 17 -21 77
-90 135 -154 58 -64 122 -138 144 -164 59 -73 340 -385 595 -662 194 -211 835
-850 888 -885 40 -27 62 -35 97 -35 45 0 47 1 218 164 173 164 551 550 577
590 8 12 91 100 185 197 94 97 214 224 266 283 52 59 122 137 155 174 33 37
88 101 123 142 34 41 94 111 132 155 165 187 517 606 659 783 546 684 874
1121 1240 1652 73 106 581 868 647 970 33 52 85 133 114 180 116 186 450 742
459 765 2 5 12 22 22 36 20 28 84 140 236 414 55 99 112 200 125 225 14 25 38
68 53 95 16 28 50 90 78 138 27 48 47 96 44 105 -5 20 -589 857 -618 887 -15
15 -23 17 -37 9 -17 -11 -103 -168 -184 -338 l-42 -88 -76 6 c-267 23 -651
169 -905 344 -267 185 -488 441 -697 810 -56 98 -248 474 -248 485 0 3 -15 38
-34 79 -55 120 -111 257 -145 358 -60 176 -86 228 -130 257 l-34 23 -2217 0
-2218 0 -31 -29z"/>
<path d="M2062 9468 c-170 -244 -317 -456 -327 -471 -20 -31 -29 -6 120 -322
33 -71 72 -154 85 -184 66 -143 127 -256 143 -266 15 -8 23 -5 40 15 12 14
156 217 320 452 198 285 297 434 297 451 0 25 -27 99 -54 147 -8 14 -35 75
-61 135 -26 61 -58 134 -71 163 -13 29 -24 54 -24 57 0 2 -15 36 -33 77 -19
40 -40 89 -47 108 -15 41 -48 80 -66 80 -7 0 -152 -199 -322 -442z"/>
<path d="M13238 9883 c-8 -10 -34 -63 -58 -118 -23 -55 -58 -133 -76 -173 -19
-41 -34 -76 -34 -78 0 -2 -16 -38 -35 -80 -19 -41 -35 -78 -35 -80 0 -3 -23
-53 -51 -110 -28 -58 -48 -111 -45 -117 2 -7 148 -217 323 -467 231 -329 325
-455 338 -455 19 0 58 68 144 255 73 159 190 408 206 443 14 28 16 44 9 62
-15 43 -644 935 -658 935 -7 0 -20 -8 -28 -17z"/>
</g>
</svg>
